<?xml version="1.0" encoding="utf-8"?>
<!-- Generator: Adobe Illustrator 19.0.0, SVG Export Plug-In . SVG Version: 6.00 Build 0)  -->
<svg version="1.1" id="Layer_1" xmlns="http://www.w3.org/2000/svg" xmlns:xlink="http://www.w3.org/1999/xlink" x="0px" y="0px"
	 viewBox="0 0 102.9 24.7" style="enable-background:new 0 0 102.9 24.7;" xml:space="preserve">
<style type="text/css">
	.st0{opacity:0.9;clip-path:url(#SVGID_2_);fill:#0F0D3F;}
	.st1{opacity:0.9;clip-path:url(#SVGID_2_);fill:#283FB1;}
	.st2{opacity:0.9;clip-path:url(#SVGID_2_);fill:#30D9DF;}
	.st3{opacity:0.9;}
	.st4{fill:#1A1A1A;}
</style>
<g>
	<g>
		<defs>
			<circle id="SVGID_1_" cx="12.4" cy="12.4" r="12.4"/>
		</defs>
		<clipPath id="SVGID_2_">
			<use xlink:href="#SVGID_1_"  style="overflow:visible;"/>
		</clipPath>
		<path class="st0" d="M7.8,14.2c-2.3-1.9-4.4,2.8-6.6,3.9c-1-1.9-2.7-8.2,1-13.1c1,1,1.8,0.7,5.7,9.4"/>
		<path class="st1" d="M5.9,1.8C3.8,3.4,1.9,4.3,0.7,8c4,3.9,4.5,0.2,13.6,7.8c0,0,1.6-3.7,3.8-5.3c2-1.4,4.4,5.3,6.5,5.2
			C20.3,3.7,15.6,7.2,5.9,1.8z"/>
		<path class="st2" d="M18.1,10.4C14.8,5.8,9.8,6.7,7.9,0.9C5.8,1.6,3.1,3.3,1.4,6.3c2.4,4.4,7.5,8.9,8.9,10.7
			c2.9,2.4,3.7-0.6,4.1-1.2C15.7,13.1,16.6,11.5,18.1,10.4"/>
		<path class="st1" d="M19.7,2.3c-4.2-1.4-5.2-1-7.2-2.3C8,0.1,5.8,1.4,4.3,2.9c1.2,5.2,15.9,3.4,20.3,6.7
			C24.4,9.5,23.4,4.1,19.7,2.3z"/>
		<path class="st0" d="M24.6,15.6c-4.8-7.4-10.1-5-12.1-15.7C21.3,0.7,25.9,6.3,24.6,15.6z"/>
	</g>
	
</g>
</svg>
