<?xml version="1.0" encoding="utf-8"?>
<!-- Generator: Adobe Illustrator 19.0.0, SVG Export Plug-In . SVG Version: 6.00 Build 0)  -->
<svg version="1.1" id="Layer_1" xmlns="http://www.w3.org/2000/svg" xmlns:xlink="http://www.w3.org/1999/xlink" x="0px" y="0px"
	 viewBox="0 0 102.9 24.7" style="enable-background:new 0 0 102.9 24.7;" xml:space="preserve">
<style type="text/css">
	.st0{opacity:0.9;clip-path:url(#SVGID_2_);fill:#0F0D3F;}
	.st1{opacity:0.9;clip-path:url(#SVGID_2_);fill:#283FB1;}
	.st2{opacity:0.9;clip-path:url(#SVGID_2_);fill:#30D9DF;}
	.st3{opacity:0.9;}
	.st4{fill:#1A1A1A;}
</style>
<g>
	<g>
		<defs>
			<circle id="SVGID_1_" cx="12.4" cy="12.4" r="12.4"/>
		</defs>
		<clipPath id="SVGID_2_">
			<use xlink:href="#SVGID_1_"  style="overflow:visible;"/>
		</clipPath>
		<path class="st0" d="M7.8,14.2c-2.3-1.9-4.4,2.8-6.6,3.9c-1-1.9-2.7-8.2,1-13.1c1,1,1.8,0.7,5.7,9.4"/>
		<path class="st1" d="M5.9,1.8C3.8,3.4,1.9,4.3,0.7,8c4,3.9,4.5,0.2,13.6,7.8c0,0,1.6-3.7,3.8-5.3c2-1.4,4.4,5.3,6.5,5.2
			C20.3,3.7,15.6,7.2,5.9,1.8z"/>
		<path class="st2" d="M18.1,10.4C14.8,5.8,9.8,6.7,7.9,0.9C5.8,1.6,3.1,3.3,1.4,6.3c2.4,4.4,7.5,8.9,8.9,10.7
			c2.9,2.4,3.7-0.6,4.1-1.2C15.7,13.1,16.6,11.5,18.1,10.4"/>
		<path class="st1" d="M19.7,2.3c-4.2-1.4-5.2-1-7.2-2.3C8,0.1,5.8,1.4,4.3,2.9c1.2,5.2,15.9,3.4,20.3,6.7
			C24.4,9.5,23.4,4.1,19.7,2.3z"/>
		<path class="st0" d="M24.6,15.6c-4.8-7.4-10.1-5-12.1-15.7C21.3,0.7,25.9,6.3,24.6,15.6z"/>
	</g>
	<g class="st3">
		<g id="XMLID_949_">
			<path id="XMLID_967_" class="st4" d="M42.2,8.6c0.4,0.5,0.7,1.3,0.7,2.3v4.4h-2.3V11c0-0.5-0.1-0.9-0.3-1.1
				c-0.2-0.2-0.5-0.3-0.9-0.3c-0.5,0-0.8,0.2-1.1,0.5c-0.3,0.3-0.4,0.7-0.4,1.3v4h-2.3V11c0-0.5-0.1-0.9-0.3-1.1
				c-0.2-0.2-0.5-0.3-0.9-0.3c-0.5,0-0.8,0.2-1.1,0.5c-0.3,0.3-0.4,0.7-0.4,1.3v4h-2.3v-5.2c0-0.8,0-1.5-0.1-2.1h2.2l0.1,1.1
				c0.2-0.4,0.6-0.7,1-0.9c0.4-0.2,0.9-0.3,1.5-0.3c1.2,0,1.9,0.5,2.3,1.4c0.3-0.4,0.6-0.7,1.1-1c0.5-0.2,1-0.4,1.5-0.4
				C41.1,7.9,41.8,8.1,42.2,8.6z"/>
			<path id="XMLID_964_" class="st4" d="M46.2,15c-0.6-0.3-1.1-0.7-1.4-1.3c-0.3-0.6-0.5-1.2-0.5-2c0-0.8,0.2-1.4,0.5-2
				c0.3-0.6,0.8-1,1.4-1.3c0.6-0.3,1.3-0.5,2.2-0.5c0.8,0,1.5,0.2,2.1,0.5c0.6,0.3,1.1,0.7,1.4,1.3c0.3,0.6,0.5,1.2,0.5,2
				c0,0.8-0.2,1.4-0.5,2c-0.3,0.6-0.8,1-1.4,1.3c-0.6,0.3-1.3,0.5-2.1,0.5C47.6,15.5,46.9,15.3,46.2,15z M49.7,13.3
				c0.3-0.4,0.5-0.9,0.5-1.6c0-0.7-0.2-1.2-0.5-1.6c-0.3-0.4-0.7-0.5-1.3-0.5c-0.6,0-1,0.2-1.3,0.5c-0.3,0.4-0.5,0.9-0.5,1.6
				c0,1.4,0.6,2.1,1.8,2.1C49,13.8,49.4,13.6,49.7,13.3z"/>
			<path id="XMLID_962_" class="st4" d="M53.5,14.6l0.6-1.5c0.4,0.3,0.9,0.5,1.4,0.6c0.5,0.1,1,0.2,1.5,0.2c0.4,0,0.7-0.1,0.9-0.2
				c0.2-0.1,0.3-0.3,0.3-0.5c0-0.2-0.1-0.3-0.2-0.4c-0.2-0.1-0.4-0.2-0.8-0.3l-1.3-0.3c-0.7-0.2-1.3-0.4-1.6-0.7
				c-0.4-0.3-0.5-0.8-0.5-1.3c0-0.5,0.1-0.9,0.4-1.2c0.3-0.4,0.7-0.6,1.2-0.8C55.8,8,56.4,7.9,57,7.9c0.6,0,1.1,0.1,1.6,0.2
				c0.5,0.2,1,0.4,1.4,0.7l-0.6,1.5c-0.4-0.3-0.8-0.5-1.2-0.6c-0.4-0.1-0.8-0.2-1.2-0.2c-0.4,0-0.7,0.1-0.9,0.2
				c-0.2,0.1-0.3,0.3-0.3,0.5c0,0.2,0.1,0.3,0.2,0.4c0.1,0.1,0.4,0.2,0.7,0.3l1.3,0.3c0.8,0.2,1.4,0.4,1.7,0.8
				c0.4,0.3,0.5,0.8,0.5,1.4c0,0.7-0.3,1.2-0.9,1.6c-0.6,0.4-1.4,0.6-2.4,0.6C55.5,15.5,54.3,15.2,53.5,14.6z"/>
			<path id="XMLID_960_" class="st4" d="M69.9,15.4H67L64,12.1v3.3h-2.3V4.8H64v6.4l2.9-3.1h2.8l-3.3,3.5L69.9,15.4z"/>
			<path id="XMLID_957_" class="st4" d="M77.4,11.9h-5.1c0,0.7,0.2,1.2,0.6,1.5c0.3,0.3,0.8,0.5,1.5,0.5c0.4,0,0.8-0.1,1.2-0.2
				c0.4-0.1,0.8-0.3,1.1-0.5l0.6,1.5c-0.4,0.3-0.8,0.5-1.4,0.7c-0.5,0.2-1.1,0.2-1.6,0.2c-1.3,0-2.3-0.3-3.1-1
				c-0.7-0.7-1.1-1.6-1.1-2.8c0-0.7,0.2-1.4,0.5-2c0.3-0.6,0.8-1,1.4-1.4c0.6-0.3,1.2-0.5,2-0.5c1.1,0,2,0.3,2.6,1
				c0.6,0.7,0.9,1.6,0.9,2.7V11.9z M72.8,9.8c-0.3,0.2-0.4,0.6-0.5,1h3.1c-0.1-0.9-0.6-1.4-1.5-1.4C73.4,9.4,73.1,9.5,72.8,9.8z"/>
			<path id="XMLID_955_" class="st4" d="M86.4,10.9v4.4h-2.3V11c0-0.5-0.1-0.9-0.3-1.1c-0.2-0.2-0.5-0.4-0.9-0.4
				c-0.5,0-0.9,0.2-1.2,0.5c-0.3,0.3-0.5,0.7-0.5,1.2v4.1h-2.3v-5.2c0-0.8,0-1.5-0.1-2.1h2.2L81,9.2c0.3-0.4,0.6-0.8,1.1-1
				c0.4-0.2,0.9-0.3,1.5-0.3C85.5,7.9,86.4,8.9,86.4,10.9z"/>
			<path id="XMLID_952_" class="st4" d="M95.2,11.9h-5.1c0,0.7,0.2,1.2,0.6,1.5c0.3,0.3,0.8,0.5,1.5,0.5c0.4,0,0.8-0.1,1.2-0.2
				c0.4-0.1,0.8-0.3,1.1-0.5l0.6,1.5c-0.4,0.3-0.8,0.5-1.4,0.7c-0.5,0.2-1.1,0.2-1.6,0.2c-1.3,0-2.3-0.3-3.1-1
				c-0.7-0.7-1.1-1.6-1.1-2.8c0-0.7,0.2-1.4,0.5-2c0.3-0.6,0.8-1,1.4-1.4c0.6-0.3,1.2-0.5,2-0.5c1.1,0,2,0.3,2.6,1
				c0.6,0.7,1,1.6,1,2.7V11.9z M90.6,9.8c-0.3,0.2-0.4,0.6-0.5,1h3.1c-0.1-0.9-0.6-1.4-1.5-1.4C91.3,9.4,90.9,9.5,90.6,9.8z"/>
			<path id="XMLID_950_" class="st4" d="M96.1,14.6l0.6-1.5c0.4,0.3,0.9,0.5,1.4,0.6c0.5,0.1,1,0.2,1.5,0.2c0.4,0,0.7-0.1,0.9-0.2
				c0.2-0.1,0.3-0.3,0.3-0.5c0-0.2-0.1-0.3-0.2-0.4c-0.2-0.1-0.4-0.2-0.8-0.3l-1.3-0.3c-0.7-0.2-1.3-0.4-1.6-0.7
				c-0.4-0.3-0.5-0.8-0.5-1.3c0-0.5,0.1-0.9,0.4-1.2c0.3-0.4,0.7-0.6,1.2-0.8c0.5-0.2,1.1-0.3,1.7-0.3c0.6,0,1.1,0.1,1.6,0.2
				c0.5,0.2,1,0.4,1.4,0.7l-0.6,1.5c-0.4-0.3-0.8-0.5-1.2-0.6c-0.4-0.1-0.8-0.2-1.2-0.2c-0.4,0-0.7,0.1-0.9,0.2
				c-0.2,0.1-0.3,0.3-0.3,0.5c0,0.2,0.1,0.3,0.2,0.4c0.1,0.1,0.4,0.2,0.7,0.3l1.3,0.3c0.8,0.2,1.4,0.4,1.7,0.8
				c0.4,0.3,0.5,0.8,0.5,1.4c0,0.7-0.3,1.2-0.9,1.6c-0.6,0.4-1.4,0.6-2.4,0.6C98.1,15.5,97,15.2,96.1,14.6z"/>
		</g>
	</g>
</g>
</svg>
